<?xml version="1.0" encoding="UTF-8" standalone="no"?>
<svg width="27px" height="27px" viewBox="0 0 27 27" version="1.1" xmlns="http://www.w3.org/2000/svg" xmlns:xlink="http://www.w3.org/1999/xlink">
    <!-- Generator: Sketch Beta 3.7.2 (28276) - http://www.bohemiancoding.com/sketch -->
    <title>close-1</title>
    <desc>Created with Sketch Beta.</desc>
    <defs></defs>
    <g id="Page-1" stroke="none" stroke-width="1" fill="none" fill-rule="evenodd">
        <g id="Video-Lightbox" transform="translate(-1259.000000, -202.000000)" stroke="#000" fill="#FFFFFF">
            <g id="Video" transform="translate(144.000000, 185.000000)">
                <g id="close-1" transform="translate(1115.143627, 17.732546)">
                    <path d="M13.0273788,0 C5.80310511,0 0,5.80811995 0,13.0386366 C0,20.2691533 5.80310511,26.0772732 13.0273788,26.0772732 C20.2516525,26.0772732 26.0547576,20.2691533 26.0547576,13.0386366 C26.0547576,5.80811995 20.2516525,0 13.0273788,0 L13.0273788,0 Z M14.9222703,13.2757027 L19.3634221,17.7206925 C19.4818529,17.8392255 19.5410682,18.0170251 19.5410682,18.1355582 C19.5410682,18.2540913 19.4818529,18.4318908 19.3634221,18.5504239 L18.5344071,19.3801553 C18.4159764,19.4986884 18.2383303,19.5579549 18.1198996,19.5579549 C17.9422535,19.5579549 17.8238228,19.4986884 17.7053921,19.3801553 L13.2642402,14.9351656 C13.1458095,14.8166325 12.9681635,14.8166325 12.8497327,14.9351656 L8.40858087,19.3801553 C8.29015016,19.4986884 8.11250408,19.5579549 7.99407336,19.5579549 C7.81642729,19.5579549 7.69799657,19.4986884 7.57956586,19.3801553 L6.75055084,18.5504239 C6.63212012,18.4318908 6.57290477,18.2540913 6.57290477,18.1355582 C6.57290477,18.0170251 6.63212012,17.8392255 6.75055084,17.7206925 L11.1917027,13.2757027 C11.3101334,13.1571697 11.3101334,12.9793701 11.1917027,12.860837 L6.75055084,8.41584727 C6.63212012,8.29731421 6.57290477,8.11951462 6.57290477,8.00098156 C6.57290477,7.8824485 6.63212012,7.70464891 6.75055084,7.58611585 L7.57956586,6.75638443 C7.69799657,6.63785137 7.87564265,6.57858484 7.99407336,6.57858484 C8.11250408,6.57858484 8.29015016,6.63785137 8.40858087,6.75638443 L12.8497327,11.2013742 C12.9681635,11.3199072 13.1458095,11.3199072 13.2642402,11.2013742 L17.7053921,6.75638443 C17.8238228,6.63785137 18.0014689,6.57858484 18.1198996,6.57858484 C18.2975457,6.57858484 18.4159764,6.63785137 18.5344071,6.75638443 L19.3634221,7.58611585 C19.4818529,7.70464891 19.5410682,7.8824485 19.5410682,8.00098156 C19.5410682,8.11951462 19.4818529,8.29731421 19.3634221,8.41584727 L14.9222703,12.860837 C14.8038396,12.9201036 14.8038396,13.1571697 14.9222703,13.2757027 L14.9222703,13.2757027 Z" id="Shape"></path>
                </g>
            </g>
        </g>
    </g>
</svg>