<?xml version="1.0" encoding="UTF-8" standalone="no"?>
<svg width="21px" height="20px" viewBox="0 0 21 20" version="1.1" xmlns="http://www.w3.org/2000/svg" xmlns:xlink="http://www.w3.org/1999/xlink">
    <!-- Generator: Sketch Beta 3.8.3 (29801) - http://www.bohemiancoding.com/sketch -->
    <title>Company</title>
    <desc>Created with Sketch Beta.</desc>
    <defs></defs>
    <g id="Page-1" stroke="none" stroke-width="1" fill="none" fill-rule="evenodd">
        <g id="Contact-Form" transform="translate(-479.000000, -364.000000)" fill="#BDBDBD">
            <g id="Form" transform="translate(435.000000, 246.000000)">
                <g id="Company" transform="translate(31.000000, 105.000000)">
                    <path d="M32.6875,21.6666667 L14.3125,21.6666667 L14.3125,18.3333333 C14.3125,17.5973333 14.9005,17 15.625,17 L31.375,17 C32.0995,17 32.6875,17.5973333 32.6875,18.3333333 L32.6875,21.6666667 L32.6875,21.6666667 Z M22.1875,23.6666667 C22.1875,23.4226667 22.2564063,23.1973333 22.3692813,23 L24.6307188,23 C24.7435938,23.1973333 24.8125,23.4226667 24.8125,23.6666667 C24.8125,24.4026667 24.2245,25 23.5,25 C22.7755,25 22.1875,24.4026667 22.1875,23.6666667 L22.1875,23.6666667 Z M32.6875,30.3333333 C32.6875,31.0693333 32.0995,31.6666667 31.375,31.6666667 L15.625,31.6666667 C14.9005,31.6666667 14.3125,31.0693333 14.3125,30.3333333 L14.3125,23 L20.9681875,23 C20.9130625,23.214 20.875,23.4346667 20.875,23.6666667 C20.875,25.1393333 22.0503437,26.3333333 23.5,26.3333333 C24.9496563,26.3333333 26.125,25.1393333 26.125,23.6666667 C26.125,23.4346667 26.0869375,23.214 26.0318125,23 L32.6875,23 L32.6875,30.3333333 L32.6875,30.3333333 Z M20.875,15 C20.875,14.632 21.169,14.3333333 21.53125,14.3333333 L25.46875,14.3333333 C25.831,14.3333333 26.125,14.632 26.125,15 L26.125,15.6666667 L20.875,15.6666667 L20.875,15 L20.875,15 Z M31.375,15.6666667 L27.4375,15.6666667 L27.4375,14.3333333 C27.4375,13.5973333 26.8495,13 26.125,13 L20.875,13 C20.1505,13 19.5625,13.5973333 19.5625,14.3333333 L19.5625,15.6666667 L15.625,15.6666667 C14.1753437,15.6666667 13,16.8606667 13,18.3333333 L13,30.3333333 C13,31.806 14.1753437,33 15.625,33 L31.375,33 C32.8246563,33 34,31.806 34,30.3333333 L34,18.3333333 C34,16.8606667 32.8246563,15.6666667 31.375,15.6666667 L31.375,15.6666667 Z"></path>
                </g>
            </g>
        </g>
    </g>
</svg>