<?xml version="1.0" encoding="UTF-8" standalone="no"?>
<svg width="20px" height="22px" viewBox="0 0 20 22" version="1.1" xmlns="http://www.w3.org/2000/svg" xmlns:xlink="http://www.w3.org/1999/xlink">
    <!-- Generator: Sketch Beta 3.8.3 (29801) - http://www.bohemiancoding.com/sketch -->
    <title>Description</title>
    <desc>Created with Sketch Beta.</desc>
    <defs></defs>
    <g id="Page-1" stroke="none" stroke-width="1" fill="none" fill-rule="evenodd">
        <g id="Contact-Form" transform="translate(-478.000000, -585.000000)" fill="#BDBDBD">
            <g id="Form" transform="translate(435.000000, 246.000000)">
                <g id="Description" transform="translate(31.000000, 330.000000)">
                    <path d="M22.9968456,15.770394 L19.3777296,13.7642852 L20.7539633,11.2814938 C21.0751943,10.6578794 21.1216985,10.647955 21.7012078,10.9951474 L24.1139518,12.3325532 C24.7026657,12.6645625 24.7309045,12.6477591 24.3730794,13.2876025 L22.9968456,15.770394 L22.9968456,15.770394 Z M17.9427785,25.0808901 C16.7041785,24.3935115 14.6747167,23.2693739 14.3236625,23.0747814 L18.7964222,15.0057092 L22.4155382,17.011818 L17.9427785,25.0808901 L17.9427785,25.0808901 Z M13.7444125,28.5822401 L13.7435697,24.3161771 L17.3626857,26.3222858 L13.7444125,28.5822401 L13.7444125,28.5822401 Z M25.5167878,11.4255373 L21.8976718,9.41942851 C21.1678167,9.01486325 20.4232783,9.23424922 20.0031829,9.9921213 L12.3606128,23.7796828 L12.3436161,29.5004569 C12.387622,30.2802749 12.8653453,30.5450813 13.5499881,30.1691598 L18.3924728,27.1231974 L26.035043,13.3356359 C26.4551383,12.5777638 26.2462988,11.8307233 25.5167878,11.4255373 Z M20.2713087,29.5806452 C19.8929374,29.5806452 19.5862069,29.895646 19.5862069,30.2903226 C19.5862069,30.6822666 19.8930664,31 20.2713087,31 L31.3148981,31 C31.6932695,31 32,30.6849992 32,30.2903226 C32,29.8983786 31.6931405,29.5806452 31.3148981,29.5806452 L20.2713087,29.5806452 Z"></path>
                </g>
            </g>
        </g>
    </g>
</svg>