<?xml version="1.0" encoding="UTF-8" standalone="no"?>
<svg width="289px" height="606px" viewBox="0 0 289 606" version="1.1" xmlns="http://www.w3.org/2000/svg" xmlns:xlink="http://www.w3.org/1999/xlink">
    <!-- Generator: Sketch Beta 3.7 (28138) - http://www.bohemiancoding.com/sketch -->
    <title>IPHONE_x5F_5S_x5F_BLACK_x5F_FRONT_1_</title>
    <desc>Created with Sketch Beta.</desc>
    <defs>
        <linearGradient x1="-0.0172131148%" y1="50%" x2="99.9827049%" y2="50%" id="linearGradient-1">
            <stop stop-color="#231F20" offset="2.156409%"></stop>
            <stop stop-color="#FFFFFF" offset="10.12%"></stop>
            <stop stop-color="#010101" offset="17.95%"></stop>
            <stop stop-color="#F1F1F2" offset="50%"></stop>
            <stop stop-color="#010101" offset="79.85%"></stop>
            <stop stop-color="#FFFFFF" offset="89.49%"></stop>
            <stop stop-color="#231F20" offset="97.71%"></stop>
        </linearGradient>
        <linearGradient x1="0.0647540984%" y1="50%" x2="100.064672%" y2="50%" id="linearGradient-2">
            <stop stop-color="#A8A7AC" offset="2.156409%"></stop>
            <stop stop-color="#FFFFFF" offset="10.12%"></stop>
            <stop stop-color="#A8A7AC" offset="17.95%"></stop>
            <stop stop-color="#A8A7AC" offset="79.85%"></stop>
            <stop stop-color="#FFFFFF" offset="89.49%"></stop>
            <stop stop-color="#A8A7AC" offset="97.71%"></stop>
        </linearGradient>
        <linearGradient x1="50.0022222%" y1="100.000274%" x2="50.0022222%" y2="0.000136986301%" id="linearGradient-3">
            <stop stop-color="#231F20" offset="2.156409%"></stop>
            <stop stop-color="#FFFFFF" offset="10.12%"></stop>
            <stop stop-color="#010101" offset="17.95%"></stop>
            <stop stop-color="#F1F1F2" offset="50%"></stop>
            <stop stop-color="#010101" offset="79.85%"></stop>
            <stop stop-color="#FFFFFF" offset="89.49%"></stop>
            <stop stop-color="#231F20" offset="97.71%"></stop>
        </linearGradient>
        <linearGradient x1="50.0033333%" y1="100.000274%" x2="50.0033333%" y2="0.000136986301%" id="linearGradient-4">
            <stop stop-color="#A8A7AC" offset="2.156409%"></stop>
            <stop stop-color="#FFFFFF" offset="10.12%"></stop>
            <stop stop-color="#A8A7AC" offset="17.95%"></stop>
            <stop stop-color="#A8A7AC" offset="79.85%"></stop>
            <stop stop-color="#FFFFFF" offset="89.49%"></stop>
            <stop stop-color="#A8A7AC" offset="97.71%"></stop>
        </linearGradient>
        <linearGradient x1="50%" y1="100.000179%" x2="50%" y2="0%" id="linearGradient-5">
            <stop stop-color="#231F20" offset="2.156409%"></stop>
            <stop stop-color="#FFFFFF" offset="10.12%"></stop>
            <stop stop-color="#010101" offset="17.95%"></stop>
            <stop stop-color="#F1F1F2" offset="50%"></stop>
            <stop stop-color="#010101" offset="79.85%"></stop>
            <stop stop-color="#FFFFFF" offset="89.49%"></stop>
            <stop stop-color="#231F20" offset="97.71%"></stop>
        </linearGradient>
        <linearGradient x1="50%" y1="100.000179%" x2="50%" y2="0%" id="linearGradient-6">
            <stop stop-color="#A8A7AC" offset="2.156409%"></stop>
            <stop stop-color="#FFFFFF" offset="10.12%"></stop>
            <stop stop-color="#A8A7AC" offset="17.95%"></stop>
            <stop stop-color="#A8A7AC" offset="79.85%"></stop>
            <stop stop-color="#FFFFFF" offset="89.49%"></stop>
            <stop stop-color="#A8A7AC" offset="97.71%"></stop>
        </linearGradient>
        <linearGradient x1="50%" y1="100.013929%" x2="50%" y2="0.01375%" id="linearGradient-7">
            <stop stop-color="#231F20" offset="2.156409%"></stop>
            <stop stop-color="#FFFFFF" offset="10.12%"></stop>
            <stop stop-color="#010101" offset="17.95%"></stop>
            <stop stop-color="#F1F1F2" offset="50%"></stop>
            <stop stop-color="#010101" offset="79.85%"></stop>
            <stop stop-color="#FFFFFF" offset="89.49%"></stop>
            <stop stop-color="#231F20" offset="97.71%"></stop>
        </linearGradient>
        <linearGradient x1="50%" y1="100.013929%" x2="50%" y2="0.01375%" id="linearGradient-8">
            <stop stop-color="#A8A7AC" offset="2.156409%"></stop>
            <stop stop-color="#FFFFFF" offset="10.12%"></stop>
            <stop stop-color="#A8A7AC" offset="17.95%"></stop>
            <stop stop-color="#A8A7AC" offset="79.85%"></stop>
            <stop stop-color="#FFFFFF" offset="89.49%"></stop>
            <stop stop-color="#A8A7AC" offset="97.71%"></stop>
        </linearGradient>
        <linearGradient x1="3.97930424e-05%" y1="49.9997802%" x2="100.01322%" y2="49.9997802%" id="linearGradient-9">
            <stop stop-color="#231F20" offset="2.156409%"></stop>
            <stop stop-color="#FFFFFF" offset="10.12%"></stop>
            <stop stop-color="#010101" offset="17.95%"></stop>
            <stop stop-color="#F1F1F2" offset="50%"></stop>
            <stop stop-color="#010101" offset="79.85%"></stop>
            <stop stop-color="#FFFFFF" offset="89.49%"></stop>
            <stop stop-color="#231F20" offset="97.71%"></stop>
        </linearGradient>
        <linearGradient x1="47.3211819%" y1="-3.09929042%" x2="60.5611857%" y2="27.0130346%" id="linearGradient-10">
            <stop stop-color="#FFFFFF" offset="0%"></stop>
            <stop stop-color="#FFFFFF" stop-opacity="0" offset="100%"></stop>
        </linearGradient>
        <linearGradient x1="7.47867868%" y1="-3.18695652%" x2="77.1628629%" y2="93.2666667%" id="linearGradient-11">
            <stop stop-color="#FFFFFF" offset="0%"></stop>
            <stop stop-color="#000000" stop-opacity="0" offset="100%"></stop>
        </linearGradient>
        <linearGradient x1="-1.4384%" y1="50.1235294%" x2="99.5464%" y2="50.1235294%" id="linearGradient-12">
            <stop stop-color="#000000" stop-opacity="0" offset="0%"></stop>
            <stop stop-color="#FFFFFF" offset="100%"></stop>
        </linearGradient>
        <linearGradient x1="0.000158730159%" y1="50.069375%" x2="167.763889%" y2="50.069375%" id="linearGradient-13">
            <stop stop-color="#000000" stop-opacity="0" offset="0%"></stop>
            <stop stop-color="#FFFFFF" offset="100%"></stop>
        </linearGradient>
        <linearGradient x1="50.0010563%" y1="1.0334507%" x2="50.0010563%" y2="98.2327465%" id="linearGradient-14">
            <stop stop-color="#010101" offset="0%"></stop>
            <stop stop-color="#231F20" offset="100%"></stop>
        </linearGradient>
        <linearGradient x1="-0.210714286%" y1="49.9880952%" x2="100.217857%" y2="49.9880952%" id="linearGradient-15">
            <stop stop-color="#2075BC" offset="0%"></stop>
            <stop stop-color="#922A8E" offset="100%"></stop>
        </linearGradient>
        <linearGradient x1="-0.0357857143%" y1="50%" x2="99.9643571%" y2="50%" id="linearGradient-16">
            <stop stop-color="#231F20" offset="2.156409%"></stop>
            <stop stop-color="#595A5C" offset="10.12%"></stop>
            <stop stop-color="#231F20" offset="17.95%"></stop>
            <stop stop-color="#231F20" offset="79.85%"></stop>
            <stop stop-color="#424143" offset="89.49%"></stop>
            <stop stop-color="#231F20" offset="97.71%"></stop>
        </linearGradient>
    </defs>
    <g id="Page-1" stroke="none" stroke-width="1" fill="none" fill-rule="evenodd">
        <g id="Old-Mutual" transform="translate(-940.000000, -2480.000000)">
            <g id="Group-8" transform="translate(-1.000000, 3874.000000)">
                <g id="Footer">
                    <rect id="Rectangle-35" fill="#2D2D2D" x="0" y="0" width="1440" height="39"></rect>
                    <g id="Group-4" transform="translate(87.000000, 13.000000)" font-size="12" font-family="GothamBook, Gotham Book" line-spacing="14" fill="#FFFFFF" font-weight="normal">
                        <text id="©--Responsive-Digita">
                            <tspan x="0" y="9">©  </tspan>
                            <tspan x="17.16" y="9">Responsive Digital USA. All rights reserved.</tspan>
                        </text>
                    </g>
                    <text id="19-W.-34th-Street,-S" font-family="GothamBook, Gotham Book" font-size="12" font-weight="normal" fill="#FFFFFF">
                        <tspan x="785.272" y="23">19 W. 34th Street, Ste 1018 New York, NY 10001   |   1-646-394-9091   |   info@goresponsive.com</tspan>
                    </text>
                </g>
            </g>
            <g id="User-Experience" transform="translate(0.000000, 2383.000000)">
                <g id="IPHONE_x5F_5S_x5F_BLACK_x5F_FRONT_1_" transform="translate(940.000000, 97.000000)">
                    <g id="Group">
                        <g>
                            <g transform="translate(195.888579, 0.000000)" id="Shape">
                                <polygon fill="url(#linearGradient-1)" points="45.0619658 0 2.20184837 0 0.227777418 1.13625 0.227777418 3.40875 46.542519 3.40875 46.542519 1.13625"></polygon>
                                <polygon fill="url(#linearGradient-2)" points="2.20184837 0 45.0240029 0 46.5045561 1.13625 0.189814515 1.13625"></polygon>
                            </g>
                            <g transform="translate(0.000000, 86.355000)" id="Shape">
                                <path d="M1.13888709,0 C0.64536935,0.492375 0.303703224,0.83325 0,1.13625 L0,26.5125 C0.379629029,26.89125 0.64536935,27.156375 1.13888709,27.64875 L3.41666126,27.64875 L3.41666126,0 L1.13888709,0 L1.13888709,0 Z" fill="url(#linearGradient-3)"></path>
                                <path d="M1.13888709,27.64875 L1.13888709,27.64875 C0.64536935,27.156375 0.379629029,26.89125 0,26.5125 L0,1.13625 C0.303703224,0.83325 0.64536935,0.492375 1.13888709,0 L1.13888709,0 L1.13888709,27.64875 L1.13888709,27.64875 Z" fill="url(#linearGradient-4)"></path>
                                <path d="M1.13888709,57.19125 L1.13888709,57.19125 C0.64536935,57.683625 0.303703224,58.0245 0,58.3275 L0,77.265 C0.379629029,77.64375 0.64536935,77.908875 1.13888709,78.40125 L3.41666126,78.40125 L3.41666126,57.19125 L1.13888709,57.19125 L1.13888709,57.19125 Z" fill="url(#linearGradient-5)"></path>
                                <path d="M1.13888709,78.40125 L1.13888709,78.40125 C0.64536935,77.908875 0.379629029,77.64375 0,77.265 L0,58.3275 C0.303703224,58.0245 0.64536935,57.683625 1.13888709,57.19125 L1.13888709,57.19125 L1.13888709,78.40125 L1.13888709,78.40125 Z" fill="url(#linearGradient-6)"></path>
                                <path d="M1.13888709,98.85375 L1.13888709,98.85375 C0.64536935,99.346125 0.303703224,99.687 0,99.99 L0,118.9275 C0.379629029,119.30625 0.64536935,119.571375 1.13888709,120.06375 L3.41666126,120.06375 L3.41666126,98.85375 L1.13888709,98.85375 L1.13888709,98.85375 Z" fill="url(#linearGradient-7)"></path>
                                <path d="M1.13888709,120.06375 L1.13888709,120.06375 C0.64536935,119.571375 0.379629029,119.30625 0,118.9275 L0,99.99 C0.303703224,99.687 0.64536935,99.346125 1.13888709,98.85375 L1.13888709,98.85375 L1.13888709,120.06375 L1.13888709,120.06375 Z" fill="url(#linearGradient-8)"></path>
                            </g>
                            <path d="M276.256045,15.3015 C268.207909,7.272 257.540334,2.8785 246.151463,2.8785 L45.0240029,2.8785 C33.6730949,2.8785 22.9675563,7.272 14.9194209,15.3015 C6.90924833,23.331 2.46758869,33.973875 2.46758869,45.336375 L2.46758869,563.466375 C2.46758869,574.791 6.90924833,585.47175 14.9194209,593.463375 C22.9675563,601.492875 33.635132,605.886375 45.0240029,605.886375 L246.1135,605.886375 C257.464408,605.886375 268.169946,601.455 276.218082,593.463375 C284.266217,585.433875 288.669914,574.791 288.669914,563.466375 L288.669914,45.336375 C288.707877,33.973875 284.266217,23.331 276.256045,15.3015 L276.256045,15.3015 Z" id="Shape" fill="url(#linearGradient-9)"></path>
                            <g transform="translate(5.694435, 6.060000)" id="Shape">
                                <path d="M240.457027,0.22725 L39.3295674,0.22725 C17.7286757,0.22725 0.189814515,17.7255 0.189814515,39.2385 L0.189814515,557.3685 C0.189814515,578.8815 17.7666386,596.37975 39.3295674,596.37975 L240.419064,596.37975 C262.019956,596.37975 279.558817,578.8815 279.558817,557.3685 L279.558817,39.2385 C279.59678,17.763375 262.019956,0.22725 240.457027,0.22725 L240.457027,0.22725 Z" fill="#2D3134"></path>
                                <path d="M278.457893,557.3685 C278.457893,578.2755 261.450513,595.2435 240.457027,595.2435 L39.3295674,595.2435 C18.3360821,595.2435 1.3287016,578.2755 1.3287016,557.3685 L1.3287016,39.2385 C1.3287016,18.3315 18.3360821,1.3635 39.3295674,1.3635 L240.419064,1.3635 C261.41255,1.3635 278.41993,18.3315 278.41993,39.2385 L278.41993,557.3685 L278.457893,557.3685 Z" fill="#030303"></path>
                            </g>
                            <polygon id="Shape" fill="#1D1A1A" points="24.1064434 89.953125 267.069022 89.953125 267.069022 520.213125 24.1064434 520.213125"></polygon>
                            <path d="M267.069022,89.953125 L267.069022,520.213125 L24.1064434,520.213125 L24.1064434,89.953125 L267.069022,89.953125 L267.069022,89.953125 Z M267.069022,88.059375 L24.1064434,88.059375 C23.0434821,88.059375 22.2082982,88.892625 22.2082982,89.953125 L22.2082982,520.213125 C22.2082982,521.273625 23.0434821,522.106875 24.1064434,522.106875 L267.069022,522.106875 C268.131983,522.106875 268.967167,521.273625 268.967167,520.213125 L268.967167,89.953125 C268.967167,88.892625 268.131983,88.059375 267.069022,88.059375 L267.069022,88.059375 L267.069022,88.059375 Z" id="Shape" fill="#231F20" opacity="0.5"></path>
                            <path d="M246.151463,7.4235 L86.3276413,7.4235 L256.477372,599.902125 C272.459754,595.432875 284.190291,580.77525 284.190291,563.4285 L284.190291,45.2985 C284.152328,24.3915 267.144948,7.4235 246.151463,7.4235 L246.151463,7.4235 Z" id="Shape" fill="url(#linearGradient-10)" opacity="0.1"></path>
                            <g transform="translate(118.823886, 58.327500)" id="Shape">
                                <path d="M53.3378786,6.13575 C53.3378786,9.279375 50.7943641,11.817 47.6434432,11.817 L5.88424996,11.817 C2.73332901,11.817 0.189814515,9.279375 0.189814515,6.13575 L0.189814515,6.13575 C0.189814515,2.992125 2.73332901,0.4545 5.88424996,0.4545 L47.6434432,0.4545 C50.7943641,0.4545 53.3378786,2.992125 53.3378786,6.13575 L53.3378786,6.13575 L53.3378786,6.13575 Z" fill="#F2F2F2"></path>
                                <path d="M53.3378786,5.757 C53.3378786,8.900625 50.7943641,11.43825 47.6434432,11.43825 L5.88424996,11.43825 C2.73332901,11.43825 0.189814515,8.900625 0.189814515,5.757 L0.189814515,5.757 C0.189814515,2.613375 2.73332901,0.07575 5.88424996,0.07575 L47.6434432,0.07575 C50.7943641,0.07575 53.3378786,2.613375 53.3378786,5.757 L53.3378786,5.757 L53.3378786,5.757 Z" fill="#0F0F10"></path>
                                <path d="M4.59351126,10.112625 C4.28980803,10.339875 3.910179,10.605 3.53054997,10.945875 C4.25184513,11.28675 5.04906609,11.476125 5.92221286,11.476125 L41.45549,11.476125 C41.1517868,11.324625 40.8480836,11.173125 40.5823432,11.0595 C39.0258642,10.302 37.4693852,9.582375 35.8369804,9.052125 C35.6471659,8.976375 35.4193884,8.900625 35.2295739,8.86275 L6.94721124,8.86275 C6.07406447,9.16575 5.27684351,9.582375 4.59351126,10.112625 L4.59351126,10.112625 Z" fill="url(#linearGradient-11)" opacity="0.2"></path>
                                <path d="M50.6045496,9.355125 C50.4906609,9.2415 49.9971432,8.749125 49.4276996,8.218875 C48.9341819,8.55975 48.3267754,8.787 47.6814061,8.787 L46.6184448,8.787 C46.6943706,9.658125 46.9601109,10.567125 47.2638142,11.43825 L47.6814061,11.43825 C49.0860335,11.43825 50.3767722,10.908 51.3638077,10.07475 C51.0980674,9.8475 50.832327,9.62025 50.6045496,9.355125 L50.6045496,9.355125 Z" fill="url(#linearGradient-12)" opacity="0.2"></path>
                                <path d="M47.6434432,2.727 L5.88424996,2.727 C4.21388223,2.727 2.84721772,4.0905 2.84721772,5.757 C2.84721772,7.4235 4.21388223,8.787 5.88424996,8.787 L6.87128543,8.787 L35.1536481,8.787 L46.5804819,8.787 L47.6434432,8.787 C48.2888125,8.787 48.896219,8.55975 49.3897367,8.218875 C50.1489948,7.65075 50.6804754,6.779625 50.6804754,5.757 C50.6804754,4.0905 49.3138109,2.727 47.6434432,2.727 L47.6434432,2.727 Z" fill="url(#linearGradient-13)" opacity="0.2"></path>
                            </g>
                            <g transform="translate(140.083112, 32.193750)" id="Oval">
                                <ellipse fill="#FFFFFF" opacity="0.2" cx="5.50462093" cy="5.83275" rx="5.39073222" ry="5.37825"></ellipse>
                                <ellipse fill="url(#linearGradient-14)" cx="5.50462093" cy="5.52975" rx="5.39073222" ry="5.37825"></ellipse>
                                <ellipse fill="#2BACE2" cx="5.50462093" cy="5.52975" rx="2.31573708" ry="2.310375"></ellipse>
                                <ellipse fill="url(#linearGradient-15)" cx="5.50462093" cy="5.52975" rx="1.59444192" ry="1.59075"></ellipse>
                                <ellipse fill="#FFFFFF" cx="5.50462093" cy="4.77225" rx="0.683332253" ry="0.4545"></ellipse>
                            </g>
                        </g>
                        <g transform="translate(2.277774, 54.918750)" id="Rectangle-path" fill="#131517">
                            <rect x="0.189814515" y="0.07575" width="4.55554835" height="4.545"></rect>
                            <rect x="281.874554" y="0.07575" width="4.55554835" height="4.545"></rect>
                            <rect x="0.189814515" y="494.72325" width="4.55554835" height="4.545"></rect>
                            <rect x="281.874554" y="494.72325" width="4.55554835" height="4.545"></rect>
                        </g>
                    </g>
                    <path d="M143.993291,533.772375 C129.301647,533.772375 117.419259,545.62725 117.419259,560.284875 C117.419259,574.9425 129.301647,586.797375 143.993291,586.797375 C158.684934,586.797375 170.567323,574.9425 170.567323,560.284875 C170.567323,545.62725 158.646971,533.772375 143.993291,533.772375 L143.993291,533.772375 Z M143.955328,583.767375 C130.972015,583.767375 120.418328,573.238125 120.418328,560.284875 C120.418328,547.331625 130.972015,536.802375 143.955328,536.802375 C156.938641,536.802375 167.492328,547.331625 167.492328,560.284875 C167.492328,573.238125 156.976604,583.767375 143.955328,583.767375 L143.955328,583.767375 Z" id="Shape" fill="url(#linearGradient-16)"></path>
                </g>
            </g>
        </g>
    </g>
</svg>