<?xml version="1.0" encoding="UTF-8" standalone="no"?>
<svg width="17px" height="22px" viewBox="0 0 17 22" version="1.1" xmlns="http://www.w3.org/2000/svg" xmlns:xlink="http://www.w3.org/1999/xlink">
    <!-- Generator: Sketch Beta 3.8.3 (29801) - http://www.bohemiancoding.com/sketch -->
    <title>Name</title>
    <desc>Created with Sketch Beta.</desc>
    <defs></defs>
    <g id="Page-1" stroke="none" stroke-width="1" fill="none" fill-rule="evenodd">
        <g id="Contact-Form" transform="translate(-481.000000, -288.000000)" fill="#BDBDBD">
            <g id="Form" transform="translate(435.000000, 246.000000)">
                <g id="Name" transform="translate(31.000000, 30.000000)">
                    <path d="M32,30.5624938 C32,25.626119 28.1950563,21.625 23.5,21.625 C18.8083288,21.625 15,25.6301976 15,30.5584073 L15,33.2561679 C15,33.6358637 15.2927369,33.9436679 15.6538462,33.9436679 C16.0149554,33.9436679 16.3076923,33.6358637 16.3076923,33.2561679 L16.3076923,30.5584073 C16.3076923,26.3895237 19.5306096,23 23.5,23 C27.4728134,23 30.6923077,26.385485 30.6923077,30.5624938 L30.6923077,33.2520752 C30.6923077,33.631771 30.9850446,33.9395752 31.3461538,33.9395752 C31.7072631,33.9395752 32,33.631771 32,33.2520752 L32,30.5624938 L32,30.5624938 Z M28.0769231,16.8125 C28.0769231,14.1546296 26.0277648,12 23.5,12 C20.9722352,12 18.9230769,14.1546296 18.9230769,16.8125 C18.9230769,19.4703704 20.9722352,21.625 23.5,21.625 C26.0277648,21.625 28.0769231,19.4703704 28.0769231,16.8125 L28.0769231,16.8125 Z M20.2307692,16.8125 C20.2307692,14.9140212 21.6944537,13.375 23.5,13.375 C25.3055463,13.375 26.7692308,14.9140212 26.7692308,16.8125 C26.7692308,18.7109788 25.3055463,20.25 23.5,20.25 C21.6944537,20.25 20.2307692,18.7109788 20.2307692,16.8125 L20.2307692,16.8125 Z"></path>
                </g>
            </g>
        </g>
    </g>
</svg>