<?xml version="1.0" encoding="UTF-8" standalone="no"?>
<svg width="38px" height="38px" viewBox="0 0 38 38" version="1.1" xmlns="http://www.w3.org/2000/svg" xmlns:xlink="http://www.w3.org/1999/xlink">
    <!-- Generator: Sketch Beta 3.7.2 (28276) - http://www.bohemiancoding.com/sketch -->
    <title>Play Button</title>
    <desc>Created with Sketch Beta.</desc>
    <defs></defs>
    <g id="Page-1" stroke="none" stroke-width="1" fill="none" fill-rule="evenodd">
        <g id="Our-Work-Copy" transform="translate(-596.000000, -1155.000000)">
            <g id="Play-Button" transform="translate(597.000000, 1156.000000)">
                <path d="M18,35.7804878 C27.8042927,35.7804878 35.7804878,27.8042927 35.7804878,18 C35.7804878,8.19570732 27.8042927,0.219512195 18,0.219512195 C8.19570732,0.219512195 0.219512195,8.19570732 0.219512195,18 C0.219512195,27.8042927 8.19570732,35.7804878 18,35.7804878 L18,35.7804878 Z" id="Stroke-1" stroke="#121212" stroke-width="2"></path>
                <path d="M23.5196341,18.715522 C23.5196341,18.715522 24.6255366,17.9999122 23.5196341,17.2843024 L15.5539756,12.1301561 C15.5539756,12.1301561 14.4480732,11.4145463 14.4480732,12.7316195 L14.4480732,23.2682049 C14.4480732,23.2682049 14.4480732,24.585278 15.5539756,23.8696683 L23.5196341,18.715522 Z" id="Fill-3" fill="#121212"></path>
            </g>
        </g>
    </g>
</svg>