<?xml version="1.0" encoding="UTF-8" standalone="no"?>
<svg width="24px" height="22px" viewBox="0 0 24 22" version="1.1" xmlns="http://www.w3.org/2000/svg" xmlns:xlink="http://www.w3.org/1999/xlink">
    <!-- Generator: Sketch Beta 3.8.3 (29801) - http://www.bohemiancoding.com/sketch -->
    <title>Project</title>
    <desc>Created with Sketch Beta.</desc>
    <defs></defs>
    <g id="Page-1" stroke="none" stroke-width="1" fill="none" fill-rule="evenodd">
        <g id="Contact-Form" transform="translate(-477.000000, -513.000000)" fill="#BDBDBD">
            <g id="Form" transform="translate(435.000000, 246.000000)">
                <g id="Project-Type" transform="translate(31.000000, 255.000000)">
                    <path d="M16.5757576,16.8125 L12.3939394,16.8125 L12.3939394,14.0625 C12.3723333,13.38325 12.4085758,13.353 13.0909091,13.375 L15.8787879,13.375 C16.5618182,13.3798125 16.5785455,13.3523125 16.5757576,14.0625 L16.5757576,16.8125 L16.5757576,16.8125 Z M16.5757576,27.125 C15.1441818,27.1243125 12.7995758,27.125 12.3939394,27.125 L12.3939394,18.1875 L16.5757576,18.1875 L16.5757576,27.125 L16.5757576,27.125 Z M14.4848485,32.1141875 L12.3939394,28.5 L16.5757576,28.5 L14.4848485,32.1141875 L14.4848485,32.1141875 Z M16.5757576,12 L12.3939394,12 C11.5506061,12 11,12.5355625 11,13.375 L11,28.6464375 L13.7878788,33.5015625 C14.2088485,34.141625 14.7608485,34.141625 15.1818182,33.5015625 L17.969697,28.6464375 L17.969697,13.375 C17.969697,12.5355625 17.4190909,12.0006875 16.5757576,12 L16.5757576,12 Z M28.1680678,16.125 C27.8558788,16.125 27.6057208,16.3737653 27.603687,16.6827157 L27.603687,20.4422813 C27.603687,20.7502286 27.8558788,20.999997 28.1680678,20.999997 C28.4802568,21.0010001 28.7324486,20.7502286 28.7324486,20.4422813 L28.7324486,16.6827157 C28.7344824,16.3717591 28.478223,16.125 28.1680678,16.125 L28.1680678,16.125 Z M33,27.2813458 C33,30.0139199 30.807773,32.2354061 28.1102912,32.2354061 C25.4147402,32.2347712 23.221226,30.0139199 23.2218696,27.2819807 L23.221226,19.9578696 C23.2218696,17.2240258 25.4153839,15.0012698 28.1096475,15 C30.8058421,15.0006349 32.9993564,17.2240258 32.9993564,19.9578696 L33,27.2813458 L33,27.2813458 Z M28.502303,12.6153125 C28.5016061,12.405625 28.3280606,12.235125 28.1140909,12.2358125 C27.9015152,12.2358125 27.7258788,12.4049375 27.7279697,12.6180625 L27.7286667,13.5695625 C24.5637273,13.7744375 22.0455758,16.4116875 22.0469697,19.6594375 L22.0469697,27.5925 C22.0455758,30.9695 24.7665455,33.7174375 28.1133939,33.7174375 C31.4574545,33.7174375 34.1798182,30.970875 34.1805152,27.591125 L34.1812121,19.6594375 C34.1798182,16.4130625 31.6630606,13.7758125 28.5016061,13.5681875 L28.502303,12.6153125 Z" id="Project"></path>
                </g>
            </g>
        </g>
    </g>
</svg>