<?xml version="1.0" encoding="UTF-8" standalone="no"?>
<svg width="644px" height="114px" viewBox="0 0 644 114" version="1.1" xmlns="http://www.w3.org/2000/svg">
    <!-- Generator: Sketch Beta 3.7 (28138) - http://www.bohemiancoding.com/sketch -->
    <title>Logo &amp; Button</title>
    <desc>Created with Sketch Beta.</desc>
    <defs></defs>
    <g id="Page-1" stroke="none" stroke-width="1" fill="none" fill-rule="evenodd">
        <g id="Homepage" transform="translate(-398.000000, -393.000000)">
            <g id="Logo-&amp;-Button" transform="translate(398.000000, 393.000000)" fill="#FFFFFF">
                <path d="M631.401569,94.8169221 L633.507377,94.8169221 L633.507377,97.2501621 C633.985335,96.4773601 634.616922,95.8116331 635.363343,95.2933282 C636.250979,94.7300207 637.292244,94.4584537 638.342821,94.5127671 C639.123382,94.4988008 639.899287,94.6400157 640.627087,94.9255489 C641.269537,95.1847014 641.84681,95.5819651 642.318561,96.0878555 C642.794967,96.6061605 643.158091,97.2175741 643.387759,97.8817493 C643.640704,98.6188596 643.763297,99.3947652 643.753986,100.173774 L643.753986,108.947715 L641.648179,108.947715 L641.648179,100.712253 C641.711803,99.5825344 641.350231,98.4698857 640.634846,97.5931124 C639.889976,96.7985851 638.828538,96.379596 637.74227,96.4463239 C637.1681,96.4416685 636.598585,96.5471916 636.064762,96.758238 C635.554216,96.9584216 635.091776,97.2641284 634.708479,97.6551849 C634.318974,98.057104 634.016371,98.5350618 633.819291,99.059574 C633.605141,99.635296 633.499618,100.24671 633.507377,100.861227 L633.507377,108.947715 L631.401569,108.947715 L631.401569,94.8169221 Z M620.19532,109.274992 C619.189746,109.285855 618.195035,109.087223 617.271707,108.689959 C616.398037,108.325284 615.605062,107.794564 614.931576,107.130389 C614.262745,106.461558 613.732026,105.665479 613.372006,104.790258 C613.019744,103.879344 612.852149,102.906359 612.880081,101.928718 C612.875426,100.955732 613.061643,99.9920574 613.426319,99.0904551 C614.147911,97.307424 615.5523,95.8875167 617.326021,95.1441991 C620.133247,93.9275791 623.39981,94.5452 625.56769,96.7037694 C626.238072,97.3726 626.76724,98.1686792 627.128812,99.0439007 C627.49504,99.9423994 627.681257,100.904522 627.673498,101.874404 L627.673498,101.928718 C627.678153,102.903255 627.48728,103.868482 627.113294,104.76698 C626.745515,105.639098 626.216347,106.433626 625.552172,107.107112 C624.883341,107.775942 624.087262,108.30511 623.213592,108.666682 C622.26078,109.079464 621.233481,109.285855 620.19532,109.274992 M620.249633,107.38799 C620.975881,107.397301 621.694369,107.248327 622.355441,106.950379 C622.974613,106.672605 623.531714,106.272237 623.992602,105.774106 C624.455041,105.271319 624.818165,104.686286 625.0618,104.050044 C625.3194,103.378109 625.448201,102.664276 625.443545,101.944236 L625.443545,101.928718 C625.448201,101.194711 625.313193,100.466912 625.046281,99.7841147 C624.791784,99.1370094 624.416246,98.5442175 623.938288,98.038327 C623.464986,97.5386438 622.897023,97.1351729 622.270091,96.8527433 C621.61833,96.5578991 620.910705,96.4089253 620.19532,96.4151325 C619.470624,96.4073735 618.752135,96.5563473 618.089512,96.8527433 C617.474994,97.1289657 616.92255,97.5308848 616.467869,98.0290162 C616.011636,98.5380103 615.653168,99.1276985 615.414189,99.7685966 C615.15814,100.446738 615.027788,101.165227 615.032444,101.889922 L615.032444,101.928718 C615.027788,102.662724 615.162796,103.390524 615.431259,104.073321 C615.681101,104.714219 616.051984,105.302355 616.522182,105.805142 C616.990829,106.301722 617.552585,106.700537 618.174861,106.982967 C618.829726,107.265397 619.537352,107.403508 620.249633,107.38799 M606.6418,91.7449567 L609.044004,91.7449567 L609.044004,89.4048253 L606.6418,89.4048253 L606.6418,91.7449567 Z M606.773704,108.948336 L608.879512,108.948336 L608.879512,94.8175429 L606.773704,94.8175429 L606.773704,108.948336 Z M600.247252,109.197091 C599.719636,109.198643 599.195124,109.125708 598.687682,108.978286 C598.217483,108.846382 597.782976,108.608955 597.416748,108.284626 C597.044314,107.943228 596.75878,107.518031 596.581874,107.044729 C596.366172,106.458144 596.263752,105.835868 596.277719,105.21204 L596.277719,96.6801819 L594.313126,96.6801819 L594.313126,94.8242157 L596.277719,94.8242157 L596.277719,90.5582866 L598.383527,90.5582866 L598.383527,94.8242157 L602.866709,94.8242157 L602.866709,96.6801819 L598.383527,96.6801819 L598.383527,104.915644 C598.30904,105.592234 598.54957,106.26572 599.038391,106.740574 C599.536522,107.103698 600.144832,107.28526 600.762453,107.255775 C601.473183,107.265086 602.176153,107.10525 602.812396,106.787128 L602.812396,108.588781 C602.44772,108.790517 602.056664,108.942594 601.651641,109.04191 C601.190753,109.148985 600.719002,109.201747 600.247252,109.197091 M583.909628,109.25156 C583.253212,109.25156 582.5999,109.160003 581.968312,108.978441 C581.356899,108.809294 580.782729,108.525312 580.275286,108.143567 C579.786466,107.774235 579.382995,107.302485 579.089703,106.764006 C578.77934,106.17587 578.622607,105.517902 578.638125,104.853727 L578.638125,104.799413 C578.621056,104.10265 578.771581,103.413646 579.074184,102.786714 C579.362821,102.214096 579.789569,101.72062 580.314082,101.351289 C580.894459,100.94937 581.541564,100.654526 582.224361,100.477619 C583.025096,100.269676 583.847556,100.167257 584.673119,100.173464 C585.456784,100.167257 586.238897,100.22157 587.013251,100.337956 C587.674322,100.446583 588.327635,100.592453 588.970085,100.774015 L588.970085,100.368992 C589.046123,99.3075534 588.645756,98.2678399 587.879161,97.5307296 C586.996181,96.8308627 585.883532,96.4848088 584.760021,96.5639512 C583.988771,96.5546403 583.220624,96.6461972 582.474203,96.83707 C581.783647,97.0217355 581.110161,97.2700253 580.463055,97.5772839 L579.831468,95.8454626 C580.584097,95.4854424 581.367761,95.1874947 582.170048,94.9578266 C583.07165,94.7219513 583.999633,94.6086691 584.93072,94.6210836 C586.600469,94.5031459 588.245389,95.0664534 589.493045,96.1822056 C590.531207,97.3072688 591.063478,98.809422 590.967266,100.337956 L590.967266,108.947405 L588.892494,108.947405 L588.892494,106.841597 C588.347808,107.527497 587.675874,108.098564 586.912383,108.526864 C585.990607,109.021892 584.955549,109.271733 583.909628,109.25156 L583.909628,109.25156 Z M584.337928,107.527497 C584.957101,107.533705 585.57317,107.440596 586.162858,107.25593 C586.699785,107.086783 587.202572,106.822975 587.644838,106.475369 C588.060723,106.151041 588.403673,105.741363 588.650411,105.274268 C588.903357,104.793206 589.029053,104.257831 589.018191,103.714697 L589.018191,102.412728 C588.498334,102.266857 587.897783,102.13185 587.216538,102.006153 C586.443736,101.871146 585.660071,101.809073 584.876407,101.819936 C583.80876,101.757863 582.748873,102.02943 581.842616,102.598945 C581.158267,103.055178 580.751692,103.82798 580.76721,104.650439 L580.76721,104.704753 C580.762555,105.117535 580.860319,105.525661 581.055847,105.890337 C581.245168,106.239494 581.510528,106.542097 581.834857,106.771765 C582.179359,107.016952 582.561104,107.200065 582.966127,107.318003 C583.408393,107.454562 583.867729,107.525946 584.330169,107.527497 L584.337928,107.527497 Z M562.261396,94.8169221 L564.601527,94.8169221 L569.357829,106.514475 L574.138959,94.8169221 L576.407707,94.8169221 L570.254776,109.056342 L568.39881,109.056342 L562.261396,94.8169221 Z M552.451001,109.274992 C551.445427,109.285855 550.450716,109.087223 549.525837,108.689959 C548.653719,108.325284 547.860743,107.794564 547.187257,107.130389 C546.518427,106.461558 545.987707,105.665479 545.627687,104.790258 C545.259908,103.893311 545.075242,102.931188 545.081449,101.959754 L545.081449,101.928718 C545.076794,100.955732 545.261459,99.9920574 545.627687,99.0904551 C546.349279,97.307424 547.752116,95.8875167 549.525837,95.1441991 C552.334615,93.9275791 555.601178,94.5452 557.769058,96.7037694 C558.43944,97.3726 558.968608,98.1686792 559.328628,99.0439007 C559.696407,99.9423994 559.881073,100.904522 559.874866,101.874404 L559.874866,101.928718 C559.879521,102.903255 559.688648,103.868482 559.31311,104.76698 C558.946883,105.639098 558.417715,106.433626 557.75354,107.107112 C557.083157,107.775942 556.28863,108.30511 555.41496,108.666682 C554.479218,109.071705 553.470541,109.278096 552.451001,109.274992 M552.505314,107.38799 C553.231562,107.397301 553.95005,107.248327 554.611122,106.950379 C555.230295,106.672605 555.787395,106.272237 556.248283,105.774106 C556.710723,105.271319 557.073846,104.686286 557.317481,104.050044 C557.575081,103.378109 557.703882,102.664276 557.699226,101.944236 L557.699226,101.928718 C557.703882,101.194711 557.568874,100.466912 557.301963,99.7841147 C557.047466,99.1370094 556.671927,98.5442175 556.193969,98.038327 C555.720667,97.5386438 555.152704,97.1351729 554.525772,96.8527433 C553.874012,96.5578991 553.166386,96.4089253 552.451001,96.4151325 C551.726305,96.4073735 551.007816,96.5563473 550.345193,96.8527433 C549.730676,97.1289657 549.178231,97.5308848 548.72355,98.0290162 C548.267318,98.5380103 547.908849,99.1276985 547.66987,99.7685966 C547.413822,100.446738 547.283469,101.165227 547.288125,101.889922 L547.288125,101.928718 C547.283469,102.662724 547.418477,103.390524 547.68694,104.073321 C547.936782,104.714219 548.307665,105.302355 548.777864,105.805142 C549.246511,106.301722 549.808266,106.700537 550.430543,106.982967 C551.085407,107.265397 551.793033,107.403508 552.505314,107.38799 M529.165142,94.8169221 L531.27095,94.8169221 L531.27095,97.2501621 C531.748908,96.4773601 532.380495,95.8116331 533.126916,95.2933282 C534.014552,94.7300207 535.055818,94.4584537 536.106394,94.5127671 C536.886955,94.4988008 537.662861,94.6400157 538.39066,94.9255489 C539.03311,95.1847014 539.610384,95.5819651 540.082134,96.0878555 C540.55854,96.6061605 540.921664,97.2175741 541.151332,97.8817493 C541.404277,98.6188596 541.526871,99.3947652 541.51756,100.173774 L541.51756,108.947715 L539.411752,108.947715 L539.411752,100.712253 C539.475376,99.5825344 539.113804,98.4698857 538.398419,97.5931124 C537.651998,96.7985851 536.592111,96.379596 535.505843,96.4463239 C534.931673,96.4416685 534.362158,96.5471916 533.828335,96.758238 C533.317789,96.9584216 532.855349,97.2641284 532.472052,97.6551849 C532.082547,98.057104 531.779944,98.5350618 531.582864,99.059574 C531.368714,99.635296 531.263191,100.24671 531.27095,100.861227 L531.27095,108.947715 L529.165142,108.947715 L529.165142,94.8169221 L529.165142,94.8169221 Z M512.336215,94.8169221 L514.442023,94.8169221 L514.442023,97.2501621 C514.919981,96.4773601 515.551568,95.8116331 516.297989,95.2933282 C517.185625,94.7300207 518.226891,94.4584537 519.277467,94.5127671 C520.058028,94.4988008 520.833934,94.6400157 521.561733,94.9255489 C522.204183,95.1847014 522.781457,95.5819651 523.253207,96.0878555 C523.729613,96.6061605 524.092737,97.2175741 524.322405,97.8817493 C524.57535,98.6188596 524.697943,99.3947652 524.688633,100.173774 L524.688633,108.947715 L522.582825,108.947715 L522.582825,100.712253 C522.646449,99.5825344 522.284877,98.4698857 521.569492,97.5931124 C520.819967,96.8078959 519.76008,96.396666 518.676916,96.4696011 C518.102746,96.4649457 517.533231,96.5704688 516.999408,96.7815151 C516.488862,96.9816988 516.026422,97.2874056 515.643125,97.678462 C515.25362,98.0803811 514.951017,98.558339 514.753937,99.0828512 C514.539787,99.6585731 514.434264,100.269987 514.442023,100.884504 L514.442023,108.947715 L512.336215,108.947715 L512.336215,94.8169221 L512.336215,94.8169221 Z M504.928334,108.946784 L507.088455,108.946784 L507.088455,89.8176071 L504.928334,89.8176071 L504.928334,108.946784 Z M489.191417,108.948336 L491.297224,108.948336 L491.297224,88.9998026 L489.191417,88.9998026 L489.191417,108.948336 Z M477.383995,109.25156 C476.727579,109.25156 476.074267,109.160003 475.442679,108.978441 C474.831266,108.809294 474.257096,108.525312 473.749653,108.143567 C473.260833,107.774235 472.857362,107.302485 472.56407,106.764006 C472.253707,106.17587 472.096975,105.517902 472.112493,104.853727 L472.112493,104.799413 C472.095423,104.10265 472.245948,103.413646 472.548552,102.786714 C472.837188,102.214096 473.263937,101.72062 473.788449,101.351289 C474.368826,100.94937 475.015931,100.654526 475.70028,100.477619 C476.499463,100.269676 477.321923,100.167257 478.147486,100.173464 C478.931151,100.167257 479.713264,100.22157 480.487618,100.337956 C481.148689,100.446583 481.802002,100.592453 482.444452,100.774015 L482.444452,100.368992 C482.52049,99.3075534 482.120123,98.2678399 481.353528,97.5307296 C480.470548,96.8308627 479.357899,96.4848088 478.234388,96.5639512 C477.463138,96.5546403 476.694991,96.6461972 475.94857,96.83707 C475.258014,97.0217355 474.584528,97.2700253 473.937423,97.5772839 L473.305835,95.8454626 C474.058464,95.4854424 474.842129,95.1874947 475.644415,94.9578266 C476.546017,94.7219513 477.474,94.6086691 478.405087,94.6210836 C480.074836,94.5031459 481.721308,95.0664534 482.967412,96.1822056 C484.005574,97.3072688 484.537845,98.809422 484.441633,100.337956 L484.441633,108.947405 L482.366861,108.947405 L482.366861,106.841597 C481.822175,107.527497 481.150241,108.098564 480.38675,108.526864 C479.464974,109.021892 478.429916,109.271733 477.383995,109.25156 L477.383995,109.25156 Z M477.812295,107.527497 C478.431468,107.533705 479.047537,107.440596 479.637225,107.25593 C480.174152,107.086783 480.676939,106.822975 481.119205,106.475369 C481.53509,106.151041 481.878041,105.741363 482.124779,105.274268 C482.377724,104.793206 482.503421,104.257831 482.492558,103.714697 L482.492558,102.412728 C481.972701,102.266857 481.37215,102.13185 480.690905,102.006153 C479.918103,101.871146 479.134438,101.809073 478.350774,101.819936 C477.283128,101.757863 476.223241,102.02943 475.316983,102.598945 C474.632634,103.055178 474.22606,103.82798 474.241578,104.650439 L474.241578,104.704753 C474.23537,105.117535 474.336238,105.525661 474.530214,105.890337 C474.719535,106.239494 474.986447,106.542097 475.309224,106.771765 C475.653726,107.016952 476.035471,107.200065 476.440494,107.318003 C476.88276,107.454562 477.342096,107.525946 477.804536,107.527497 L477.812295,107.527497 Z M466.864112,109.197091 C466.336496,109.198643 465.811984,109.125708 465.304542,108.978286 C464.834343,108.846382 464.399836,108.608955 464.033608,108.284626 C463.661174,107.943228 463.37564,107.518031 463.198734,107.044729 C462.983032,106.458144 462.880613,105.835868 462.894579,105.21204 L462.894579,96.6801819 L460.929986,96.6801819 L460.929986,94.8242157 L462.894579,94.8242157 L462.894579,90.5582866 L465.000387,90.5582866 L465.000387,94.8242157 L469.485121,94.8242157 L469.485121,96.6801819 L465.000387,96.6801819 L465.000387,104.915644 C464.9259,105.592234 465.16643,106.26572 465.655251,106.740574 C466.153382,107.103698 466.763244,107.28526 467.379313,107.255775 C468.090043,107.265086 468.793013,107.10525 469.429256,106.787128 L469.429256,108.588781 C469.06458,108.790517 468.673524,108.942594 468.268501,109.04191 C467.807613,109.148985 467.337414,109.201747 466.864112,109.197091 M455.003464,91.7449567 L457.405667,91.7449567 L457.405667,89.4048253 L455.003464,89.4048253 L455.003464,91.7449567 Z M455.135368,108.948336 L457.241175,108.948336 L457.241175,94.8175429 L455.135368,94.8175429 L455.135368,108.948336 Z M443.055759,113.376895 C441.907418,113.383102 440.763733,113.217058 439.663499,112.884971 C438.581887,112.555987 437.557692,112.057855 436.629708,111.412302 L437.588728,109.773589 C438.375496,110.341552 439.239855,110.793129 440.155423,111.115906 C441.078751,111.430923 442.048633,111.589208 443.024722,111.583001 C444.388764,111.654384 445.727978,111.198152 446.767691,110.312068 C447.756195,109.32046 448.265189,107.948659 448.164321,106.553581 L448.164321,104.883832 C447.535838,105.712499 446.767691,106.426332 445.894021,106.98964 C444.911725,107.59795 443.772695,107.900553 442.6197,107.863309 C441.772411,107.864861 440.934433,107.705025 440.146113,107.396214 C439.362448,107.092059 438.642408,106.642034 438.026338,106.069416 C436.685574,104.826415 435.939152,103.069765 435.974844,101.243283 L435.974844,101.148622 C435.957774,100.189603 436.150199,99.2367908 436.5366,98.3569139 C436.888861,97.5685938 437.394751,96.8578643 438.026338,96.2666242 C438.643959,95.6940058 439.367103,95.2439806 440.155423,94.9413774 C441.519466,94.4153134 443.01386,94.3330674 444.42756,94.7070539 C444.953624,94.8498205 445.459514,95.0577632 445.932817,95.323123 C446.373531,95.5760682 446.781657,95.8786714 447.149437,96.2278289 C447.506353,96.5661237 447.833785,96.9307994 448.131733,97.320304 L448.131733,94.7784372 L450.237541,94.7784372 L450.237541,106.47599 C450.256163,107.456735 450.096326,108.434376 449.770446,109.360807 C449.481809,110.156886 449.024025,110.88003 448.428129,111.482133 C447.770161,112.13079 446.969427,112.616507 446.08955,112.900489 C445.110357,113.223265 444.086161,113.384654 443.055759,113.376895 L443.055759,113.376895 Z M443.055759,105.999584 C443.718382,106.001136 444.37635,105.88475 444.997074,105.656634 C445.605384,105.436277 446.165588,105.102637 446.651305,104.674337 C447.132367,104.246037 447.526527,103.730836 447.81206,103.153562 C448.108456,102.549908 448.258982,101.884181 448.249671,101.210695 L448.249671,101.148622 C448.258982,100.468929 448.110008,99.7954429 447.81206,99.1840293 C447.528079,98.6098591 447.133919,98.0993132 446.651305,97.6787724 C446.162485,97.2582315 445.602281,96.9307994 444.997074,96.711994 C444.37635,96.4838777 443.718382,96.3674919 443.055759,96.3690437 C442.40555,96.3643883 441.759996,96.4807741 441.153238,96.711994 C440.577516,96.9292476 440.048349,97.2551279 439.593668,97.6710133 C439.142091,98.0884505 438.783622,98.5958928 438.539988,99.1607521 C438.277732,99.7814766 438.14738,100.451859 438.158242,101.125345 L438.158242,101.148622 C438.152035,101.819005 438.287043,102.484732 438.555506,103.099249 C438.8069,103.671867 439.170023,104.18862 439.624704,104.620024 C440.077833,105.042117 440.607001,105.375756 441.184274,105.60232 C441.769307,105.85061 442.396239,105.985618 443.032481,105.999584 L443.055759,105.999584 Z M429.66549,91.7449567 L432.067694,91.7449567 L432.067694,89.4048253 L429.66549,89.4048253 L429.66549,91.7449567 Z M429.798946,108.948336 L431.904754,108.948336 L431.904754,94.8175429 L429.798946,94.8175429 L429.798946,108.948336 Z M408.563496,89.8180727 L415.208351,89.8180727 C416.611189,89.8025545 418.004715,90.0492925 419.317547,90.5427685 C420.535719,90.9927938 421.653023,91.6833497 422.60118,92.5709858 C423.498127,93.4213783 424.210408,94.4486773 424.689918,95.5892586 C425.189601,96.777946 425.442546,98.0581902 425.431683,99.3477454 L425.431683,99.4020587 C425.440994,100.697821 425.189601,101.981169 424.689918,103.176064 C424.21196,104.322852 423.50123,105.356358 422.60118,106.209855 C421.665438,107.086628 420.568307,107.772528 419.371861,108.230313 C418.06058,108.734651 416.667054,108.986045 415.262665,108.970527 L408.563496,108.970527 L408.563496,89.8180727 Z M415.208351,106.974897 C416.328759,106.988864 417.441408,106.793336 418.490432,106.397624 C419.42307,106.054673 420.275015,105.523954 420.993503,104.838053 C421.673197,104.155257 422.203916,103.340556 422.554625,102.443609 C422.931716,101.501659 423.122588,100.494534 423.114829,99.4796493 L423.114829,99.4253359 C423.122588,98.4104514 422.931716,97.4033259 422.554625,96.4629283 C422.200813,95.5644296 421.670093,94.7481769 420.993503,94.0607245 C420.27967,93.3562022 419.427726,92.8068611 418.490432,92.4468409 C417.444511,92.0433699 416.328759,91.8447381 415.208351,91.861808 L410.723617,91.861808 L410.723617,106.998175 L415.208351,106.998175 L415.208351,106.974897 Z M514.418436,1.21322128 L523.120993,1.21322128 L547.748237,60.8632927 L572.4779,1.21322128 L580.907339,1.21322128 L551.117219,70.9454102 L544.193037,70.9454102 L514.418436,1.21322128 Z M492.264003,70.4556586 L500.061854,70.4556586 L500.061854,1.21384201 L492.264003,1.21384201 L492.264003,70.4556586 Z M452.101732,71.4452486 C446.914027,71.5088728 441.760462,70.5855452 436.918811,68.7233717 C432.080263,66.7494678 427.63898,63.9174123 423.80911,60.3637647 L428.660072,54.623615 C431.894046,57.6620613 435.602875,60.1511665 439.640688,61.9931664 C443.6785,63.6784334 448.023572,64.503997 452.398128,64.4186474 C457.076839,64.4186474 460.819807,63.3137578 463.627034,61.1039786 C466.313219,59.1316266 467.878996,55.9830016 467.83089,52.6512629 L467.83089,52.4557347 C467.855719,50.9846177 467.591911,49.5212597 467.051881,48.1510104 C466.442019,46.7636911 465.486104,45.5548302 464.275691,44.6423652 C462.602838,43.4009162 460.743768,42.432586 458.769865,41.7730663 C455.83539,40.7519745 452.83729,39.9264109 449.794189,39.301031 C446.270025,38.5701279 442.804831,37.5769687 439.429641,36.3293125 C436.794666,35.3827077 434.331942,34.0140102 432.13768,32.2744298 C430.297232,30.7924501 428.835426,28.894585 427.871751,26.7375674 C426.900318,24.3881252 426.428567,21.8633283 426.484432,19.3214616 L426.484432,19.1104152 C426.461155,16.5080278 427.038429,13.9366766 428.168147,11.5934417 C429.297866,9.27658755 430.917957,7.2359558 432.918242,5.61120946 C435.069052,3.87162908 437.514706,2.532416 440.138819,1.65719447 C443.071742,0.674897973 446.147432,0.190732873 449.240192,0.223320908 C453.765273,0.133315858 458.271733,0.853356263 462.543869,2.3524059 C466.532024,3.88404357 470.254819,6.03640573 473.57104,8.73035001 L469.016474,14.7668956 C466.113035,12.3196894 462.816988,10.3799253 459.267996,9.02674595 C455.985915,7.83805855 452.520721,7.2359558 449.029146,7.2499221 C444.480787,7.2499221 440.88524,8.32067184 438.244058,10.4621713 C435.742538,12.3414147 434.277628,15.2945115 434.297802,18.4245147 L434.297802,18.6184911 C434.268317,20.1221962 434.532125,21.6165904 435.078363,23.0178759 C435.708398,24.4346795 436.696902,25.663714 437.947662,26.5808344 C439.696553,27.8626305 441.631661,28.8651006 443.687811,29.5525529 C446.755742,30.61244 449.896608,31.4550735 453.084028,32.0711425 C460.799634,33.7874457 466.487022,36.1601651 470.147744,39.1908524 C473.806915,42.2215397 475.62719,46.3819456 475.605464,51.6689664 L475.605464,51.8629428 C475.64426,54.6515476 475.042157,57.4106679 473.844159,59.9277057 C472.689611,62.3128395 471.03538,64.421751 468.993197,66.1116734 C466.79428,67.9009117 464.26638,69.2432284 461.553814,70.0656884 C458.49209,71.0076378 455.30467,71.4731812 452.101732,71.4452486 M350.114992,1.21322128 L357.437989,1.21322128 L401.060954,56.6982314 L401.060954,1.21322128 L408.680347,1.21322128 L408.680347,70.4550378 L402.442066,70.4550378 L357.734385,13.6742654 L357.734385,70.4550378 L350.114992,70.4550378 L350.114992,1.21322128 Z M298.185646,71.6401561 C293.238472,71.7068839 288.333197,70.7276911 283.789494,68.7708571 C275.356952,65.1178935 268.757099,58.2138854 265.487432,49.6261621 C263.803717,45.2888498 262.950221,40.6768668 262.968843,36.0245368 L262.968843,35.8305604 C262.953325,31.156505 263.826994,26.5227967 265.541746,22.1746217 C273.111481,3.86635292 294.090417,-4.83930801 312.398685,2.73197892 C312.524382,2.78318869 312.651631,2.83595027 312.775776,2.89026367 C321.20987,6.54322727 327.809723,13.4456836 331.079389,22.0349587 C332.763104,26.3738228 333.618152,30.9889094 333.597978,35.6427912 C333.652292,35.6862419 333.660051,35.7638325 333.618152,35.8181459 C333.611945,35.825905 333.605738,35.8321122 333.597978,35.8383194 C333.610393,40.5092712 332.738275,45.1398759 331.025075,49.4849473 C325.792368,63.0136375 312.688874,71.8527542 298.185646,71.6401561 L298.185646,71.6401561 Z M298.381175,64.4180266 C302.136558,64.4583737 305.857801,63.7010899 309.298167,62.195833 C312.546108,60.7805812 315.466616,58.710465 317.876579,56.1142848 C320.28499,53.4886202 322.181303,50.4362076 323.467755,47.1137798 C324.838004,43.5818574 325.527008,39.8218188 325.495972,36.0322958 L325.495972,35.8383194 C325.522353,32.0348302 324.834901,28.2592735 323.467755,24.7102812 C320.8933,17.9443843 315.733528,12.4820088 309.127467,9.52580844 C305.694861,7.98796352 301.970514,7.21205791 298.208924,7.24930138 C294.453541,7.20895429 290.732297,7.96623816 287.291932,9.47149504 C284.043991,10.8867469 281.123482,12.9584148 278.713519,15.554595 C276.305108,18.1787078 274.408795,21.2311205 273.122344,24.5535483 C271.744335,28.0870224 271.050676,31.8501646 271.078608,35.6427912 L271.078608,35.8383194 C271.050676,39.6418087 271.738128,43.4173654 273.106825,46.9663577 C275.678177,53.7338064 280.837949,59.2008373 287.447113,62.1570377 C290.885927,63.6933308 294.614929,64.464581 298.381175,64.4195785 L298.381175,64.4180266 Z M199.957548,1.21322128 L225.871244,1.21322128 C229.476101,1.17908144 233.065441,1.70514544 236.50891,2.77279156 C239.49925,3.68370474 242.286303,5.16102902 244.719543,7.12407021 C246.975876,8.98003643 248.76977,11.3356859 249.960009,14.0032493 C251.224735,16.8896182 251.856323,20.0134142 251.815975,23.1651428 L251.815975,23.360671 C252.027022,29.9713868 249.021163,36.2748439 243.752764,40.2754133 C241.167447,42.2462135 238.229868,43.7064679 235.096761,44.5801376 C231.68588,45.5531232 228.153958,46.0357365 224.608069,46.0140111 L207.770918,46.0140111 L207.770918,70.4472788 L199.973066,70.4472788 L199.973066,1.21322128 L199.957548,1.21322128 Z M224.912224,39.0044799 C227.551855,39.0355161 230.180623,38.666185 232.710076,37.9120048 C234.90744,37.2648995 236.960487,36.2065642 238.76214,34.7928642 C240.408611,33.5048609 241.741617,31.8583892 242.661841,29.9806976 C243.575858,28.0300709 244.033642,25.8963305 244.002606,23.7424165 L244.002606,23.5484401 C244.002606,18.5872997 242.300269,14.8350202 238.894043,12.2869461 C235.48937,9.73887212 230.958081,8.45242062 225.301729,8.42603983 L207.770918,8.42603983 L207.770918,38.9967208 L224.927743,38.9967208 L224.912224,39.0044799 Z M160.482264,71.4452486 C155.294559,71.5088728 150.140994,70.5855452 145.299343,68.7233717 C140.460796,66.7494678 136.019512,63.9174123 132.189642,60.3637647 L137.040604,54.623615 C140.274578,57.6620613 143.983407,60.1511665 148.02122,61.9931664 C152.059033,63.6784334 156.404104,64.503997 160.77866,64.4186474 C165.457371,64.4186474 169.20034,63.3137578 172.007566,61.1039786 C174.695303,59.1300747 176.261081,55.9783462 176.211423,52.6435038 L176.211423,52.4479756 C176.236252,50.9768586 175.972444,49.5135006 175.432413,48.1432513 C174.822552,46.7559321 173.866636,45.5470712 172.656223,44.6346062 C170.983371,43.3931572 169.124301,42.424827 167.150397,41.7653072 C164.215922,40.7442154 161.217823,39.9186519 158.173169,39.2932719 C154.650558,38.5623689 151.185363,37.5692097 147.810174,36.3215535 C145.175198,35.3749486 142.712474,34.0062511 140.518213,32.2666707 C138.677765,30.784691 137.215959,28.8868259 136.252284,26.7298083 C135.28085,24.3803661 134.809099,21.8540175 134.864965,19.3137025 L134.864965,19.1104152 C134.841687,16.5080278 135.418961,13.9366766 136.54868,11.5934417 C137.678398,9.27658755 139.298489,7.2359558 141.298774,5.61120946 C143.449584,3.87162908 145.895239,2.532416 148.519351,1.65719447 C151.452275,0.674897973 154.527964,0.190732873 157.620724,0.223320908 C162.145806,0.133315858 166.652265,0.853356263 170.924402,2.3524059 C174.912557,3.88404357 178.6338,6.03640573 181.951572,8.73035001 L177.397006,14.7668956 C174.493568,12.3196894 171.197521,10.3799253 167.648528,9.02674595 C164.381966,7.84116218 160.932289,7.2359558 157.456232,7.24061124 C152.907874,7.24061124 149.312327,8.31291279 146.671144,10.4544123 C144.166521,12.3321038 142.700059,15.2852006 142.717129,18.4167556 L142.717129,18.610732 C142.687645,20.1144371 142.951453,21.6088313 143.49769,23.0101168 C144.127726,24.4269205 145.116229,25.655955 146.366989,26.5730754 C148.11588,27.8548715 150.050989,28.8573415 152.107139,29.5447939 C155.17507,30.6046809 158.315936,31.4473144 161.503356,32.0633835 C169.218961,33.7796867 174.906349,36.152406 178.567072,39.1830933 C182.226243,42.2137807 184.046517,46.3741865 184.024792,51.6612073 L184.024792,51.8551838 C184.063587,54.6437885 183.461485,57.4029089 182.263486,59.9199467 C181.108939,62.3050805 179.454708,64.4139919 177.412524,66.1039144 C175.213608,67.8931527 172.685708,69.2354694 169.973142,70.0563775 C166.899003,71.006086 163.699169,71.474733 160.482264,71.4452486 M0,1.21322128 L29.7746018,1.21322128 C33.6603371,1.14804521 37.5274507,1.7687697 41.199036,3.04591033 C44.290244,4.11821188 47.109885,5.85624045 49.4577753,8.13740294 C51.1725267,9.85991339 52.5194989,11.9129596 53.4102385,14.1739486 C54.3568433,16.6009813 54.828594,19.1878506 54.7991095,21.7933417 L54.7991095,21.9873181 C54.8472157,24.6533297 54.3754651,27.3022715 53.4102385,29.7867212 C52.5241543,32.0073631 51.1989075,34.0262695 49.5120887,35.7208473 C47.7740602,37.4433578 45.7504983,38.8492988 43.5298565,39.8781496 C41.1431708,40.9970055 38.6137185,41.7837738 36.0128829,42.2167291 L57.2789039,70.5093512 L47.6871587,70.5093512 L27.6067216,43.6056001 L7.81336948,43.6056001 L7.81336948,70.5093512 L0.0155181122,70.5093512 L0.0155181122,1.21322128 L0,1.21322128 Z M29.1352556,36.5246855 C31.5514257,36.5464109 33.9582849,36.2127715 36.2782427,35.5330782 C38.3188744,34.9449417 40.2353613,33.989026 41.9314909,32.7103336 C45.2042608,30.2553682 47.0881596,26.3680811 46.9857401,22.2759549 L46.9857401,22.0819785 C46.9857401,17.7974278 45.4261698,14.450171 42.3054774,12.0371045 C39.1863369,9.6255899 34.8241955,8.42138439 29.2206052,8.42603983 L7.81336948,8.42603983 L7.81336948,36.5014084 L29.1352556,36.5014084 L29.1352556,36.5246855 Z M72.0800793,39.3154628 L120.842643,39.3154628 L120.842643,32.3912812 L72.0800793,32.3912812 L72.0800793,39.3154628 Z M72.0800793,70.4541067 L120.842643,70.4541067 L120.842643,63.5299251 L72.0800793,63.5299251 L72.0800793,70.4541067 Z M72.0800793,8.184578 L120.842643,8.184578 L120.842643,1.26039635 L72.0800793,1.26039635 L72.0800793,8.184578 Z M595.232884,39.3154628 L643.997,39.3154628 L643.997,32.3912812 L595.232884,32.3912812 L595.232884,39.3154628 Z M595.232884,70.4541067 L643.997,70.4541067 L643.997,63.5299251 L595.232884,63.5299251 L595.232884,70.4541067 Z M595.232884,8.184578 L643.997,8.184578 L643.997,1.26039635 L595.232884,1.26039635 L595.232884,8.184578 Z"
                      id="Fill-51"></path>
            </g>
        </g>
    </g>
</svg>