<?xml version="1.0" encoding="UTF-8" standalone="no"?>
<svg xmlns:xlink="http://www.w3.org/1999/xlink" width="42px" height="24px" viewBox="0 0 42 24" version="1.1" xmlns="http://www.w3.org/2000/svg">
    <!-- Generator: Sketch Beta 3.7 (28138) - http://www.bohemiancoding.com/sketch -->
    <title>responsive logo</title>
    <desc>Created with Sketch Beta.</desc>
    <defs>
        <polygon id="path-1" points="0.00992481203 0.091305504 0.00992481203 23.6566957 41.2777895 23.6566957 41.2777895 0.091305504 0.00992481203 0.091305504"></polygon>
    </defs>
    <g id="Page-1" stroke="none" stroke-width="1" fill="none" fill-rule="evenodd">
        <g id="Homepage" transform="translate(-135.000000, -38.000000)">
            <g id="Homepage-Menu" transform="translate(135.000000, 0.000000)">
                <g id="responsive-logo">
                    <rect id="Rectangle-62" x="0" y="0" width="42" height="100"></rect>
                    <g id="Group-9" transform="translate(0.000000, 38.000000)">
                        <mask id="mask-2" fill="white">
                            <use xlink:href="#path-1"></use>
                        </mask>
                        <g id="Clip-7"></g>
                        <polygon id="Fill-6" fill="#FFFFFF" mask="url(#mask-2)" points="24.6214737 13.0603129 41.2777895 13.0603129 41.2777895 10.7048287 24.6214737 10.7048287"></polygon>
                        <path d="M9.95193985,12.1096809 C10.8327669,12.1096809 11.6451128,11.9976092 12.3906316,11.7731361 C13.1361504,11.5488278 13.779609,11.2290937 14.322,10.8134394 C14.8635639,10.3982795 15.2868571,9.89346228 15.5922105,9.29865801 C15.8965714,8.70401855 16.0492481,8.02499567 16.0492481,7.26191899 L16.0492481,7.19451113 C16.0492481,5.73593043 15.5181053,4.5970838 14.4569774,3.77747681 C13.3956842,2.95852907 11.9054737,2.54864317 9.98601504,2.54864317 L2.6692782,2.54864317 L2.6692782,12.1096809 L9.95193985,12.1096809 L9.95193985,12.1096809 Z M0,0.091305504 L10.1702857,0.091305504 C11.6341955,0.091305504 12.9351729,0.298967842 14.0727218,0.714127706 C15.2097744,1.12945238 16.1504812,1.70695145 16.894015,2.4477786 C17.4795789,3.03170532 17.9298346,3.71600216 18.2454436,4.50116357 C18.5605564,5.28698423 18.7185263,6.15076067 18.7185263,7.09331694 L18.7185263,7.1607248 C18.7185263,8.14860421 18.5605564,9.0291914 18.2454436,9.80347526 C17.9298346,10.5777591 17.485203,11.2511784 16.9108872,11.8234035 C16.3365714,12.3956286 15.6549023,12.867154 14.8667068,13.2373203 C14.078015,13.6076515 13.2221654,13.8718442 12.2988271,14.028415 L19.5632932,23.6566957 L16.2857895,23.6566957 L9.42675188,14.4996107 L2.6692782,14.4996107 L2.6692782,23.6566957 L0,23.6566957 L0,0.091305504 L0,0.091305504 Z"
                              id="Fill-8" fill="#FFFFFF" mask="url(#mask-2)"></path>
                        <polygon id="Fill-4" fill="#FFFFFF" mask="url(#mask-2)" points="24.6214737 2.46393012 41.2777895 2.46393012 41.2777895 0.108445887 24.6214737 0.108445887"></polygon>
                        <polygon id="Fill-5" fill="#FFFFFF" mask="url(#mask-2)" points="24.6214737 23.6566957 41.2777895 23.6566957 41.2777895 21.3012115 24.6214737 21.3012115"></polygon>
                    </g>
                </g>
            </g>
        </g>
    </g>
</svg>